<svg width="24" height="24" viewBox="0 0 24 24" fill="none" xmlns="http://www.w3.org/2000/svg">
<path d="M13 2C12.7348 2 12.4804 2.10536 12.2929 2.29289C12.1054 2.48043 12 2.73478 12 3V11C12 11.2652 12.1054 11.5196 12.2929 11.7071C12.4804 11.8946 12.7348 12 13 12H21C21.2652 12 21.5196 11.8946 21.7071 11.7071C21.8946 11.5196 22 11.2652 22 11C22 8.61305 21.0518 6.32387 19.364 4.63604C17.6761 2.94821 15.3869 2 13 2ZM14 10V4.07C15.4962 4.28561 16.8824 4.97978 17.9513 6.04868C19.0202 7.11759 19.7144 8.50379 19.93 10H14Z" fill="#F84605"/>
<path d="M20.8201 14.06C20.696 14.0156 20.5644 13.9963 20.4328 14.0029C20.3012 14.0096 20.1722 14.0422 20.0533 14.0989C19.9343 14.1556 19.8278 14.2352 19.7397 14.3332C19.6516 14.4312 19.5838 14.5457 19.5401 14.67C19.0894 15.9439 18.3234 17.0829 17.3136 17.9808C16.3037 18.8786 15.0829 19.506 13.7649 19.8045C12.447 20.1029 11.075 20.0626 9.77684 19.6874C8.47869 19.3123 7.29673 18.6144 6.34123 17.6589C5.38573 16.7034 4.68783 15.5214 4.31264 14.2232C3.93745 12.9251 3.8972 11.5531 4.19564 10.2352C4.49408 8.91724 5.12148 7.6964 6.01932 6.68652C6.91716 5.67665 8.05617 4.91065 9.33009 4.46C9.58072 4.37248 9.78632 4.18898 9.90165 3.94987C10.017 3.71076 10.0326 3.43563 9.94509 3.185C9.85757 2.93437 9.67407 2.72877 9.43496 2.61344C9.19585 2.4981 8.92072 2.48248 8.67009 2.57C7.07713 3.13278 5.65272 4.08996 4.5298 5.35222C3.40689 6.61448 2.62207 8.14065 2.24861 9.78831C1.87515 11.436 1.92521 13.1514 2.39413 14.7744C2.86305 16.3975 3.73553 17.8753 4.93015 19.0699C6.12477 20.2646 7.60258 21.137 9.22565 21.606C10.8487 22.0749 12.5641 22.1249 14.2118 21.7515C15.8594 21.378 17.3856 20.5932 18.6479 19.4703C19.9101 18.3474 20.8673 16.923 21.4301 15.33C21.5166 15.0807 21.501 14.8072 21.3867 14.5693C21.2725 14.3314 21.0688 14.1484 20.8201 14.06Z" fill="black"/>
</svg>
