<svg width="223" height="60" viewBox="0 0 223 60" fill="none" xmlns="http://www.w3.org/2000/svg">
<path d="M85.9923 34.8096C86.2089 34.8096 86.3756 34.9096 86.4923 35.1096C86.6256 35.3096 86.6923 35.5846 86.6923 35.9346C86.6923 36.5846 86.5339 37.1013 86.2173 37.4846C84.5673 39.5013 82.8089 40.5096 80.9423 40.5096C79.3256 40.5096 78.0339 39.8846 77.0673 38.6346C76.1006 37.3846 75.6173 35.5929 75.6173 33.2596C75.6173 32.6929 75.6423 32.1263 75.6923 31.5596C74.5923 31.7596 73.3923 31.9096 72.0923 32.0096C71.2256 32.0763 70.6339 32.1179 70.3173 32.1346C69.9839 33.8346 69.5173 35.9179 68.9173 38.3846C68.5673 39.8346 67.9006 40.5596 66.9173 40.5596C65.8506 40.5596 65.3173 40.0763 65.3173 39.1096C65.3173 38.8929 65.3589 38.5929 65.4423 38.2096C66.0089 35.9263 66.4589 33.9929 66.7923 32.4096L65.5923 32.4596C65.0423 32.4596 64.6423 32.3679 64.3923 32.1846C64.1423 31.9846 64.0173 31.6679 64.0173 31.2346C64.0173 30.6846 64.1756 30.2846 64.4923 30.0346C64.8089 29.7679 65.3339 29.6179 66.0673 29.5846L67.3923 29.5346C67.8256 27.1846 68.0423 25.3929 68.0423 24.1596C68.0423 23.3763 67.9256 22.8429 67.6923 22.5596C67.4589 22.2763 67.1506 22.1346 66.7673 22.1346C65.6006 22.1346 64.2839 23.1096 62.8173 25.0596C62.6006 25.3429 62.3589 25.4846 62.0923 25.4846C61.8589 25.4846 61.6589 25.3763 61.4923 25.1596C61.3256 24.9429 61.2423 24.6679 61.2423 24.3346C61.2423 23.8179 61.4506 23.2679 61.8673 22.6846C62.6006 21.6679 63.5256 20.8346 64.6423 20.1846C65.7589 19.5179 66.8923 19.1846 68.0423 19.1846C69.1256 19.1846 69.9589 19.5596 70.5423 20.3096C71.1423 21.0429 71.4423 22.1929 71.4423 23.7596C71.4423 25.1429 71.2423 27.0179 70.8423 29.3846L73.2923 29.2596C74.3423 29.2096 75.2423 29.1263 75.9923 29.0096C76.2923 27.1763 76.7506 25.4596 77.3673 23.8596C77.9839 22.2596 78.7506 20.9596 79.6673 19.9596C80.5839 18.9596 81.6089 18.4596 82.7423 18.4596C83.5756 18.4596 84.2339 18.7929 84.7173 19.4596C85.2006 20.1096 85.4423 20.9679 85.4423 22.0346C85.4423 26.1679 83.3339 29.0346 79.1173 30.6346C79.0673 31.3013 79.0423 31.9929 79.0423 32.7096C79.0423 34.4596 79.2589 35.7013 79.6923 36.4346C80.1256 37.1679 80.7339 37.5346 81.5173 37.5346C82.2006 37.5346 82.8256 37.3596 83.3923 37.0096C83.9589 36.6429 84.6006 36.0263 85.3173 35.1596C85.5173 34.9263 85.7423 34.8096 85.9923 34.8096ZM82.6173 20.6346C82.2506 20.6346 81.8589 20.9679 81.4423 21.6346C81.0423 22.3013 80.6589 23.2096 80.2923 24.3596C79.9256 25.5096 79.6339 26.7679 79.4173 28.1346C80.7506 27.5846 81.7339 26.8013 82.3673 25.7846C83.0006 24.7679 83.3173 23.4596 83.3173 21.8596C83.3173 21.4763 83.2506 21.1763 83.1173 20.9596C82.9839 20.7429 82.8173 20.6346 82.6173 20.6346ZM87.7434 40.5096C86.7101 40.5096 85.8851 40.1346 85.2684 39.3846C84.6518 38.6346 84.3434 37.6513 84.3434 36.4346C84.3434 35.1013 84.6518 33.8429 85.2684 32.6596C85.8851 31.4596 86.7018 30.5013 87.7184 29.7846C88.7518 29.0513 89.8434 28.6846 90.9934 28.6846C91.3601 28.6846 91.6018 28.7596 91.7184 28.9096C91.8518 29.0429 91.9601 29.2929 92.0434 29.6596C92.3934 29.5929 92.7601 29.5596 93.1434 29.5596C93.9601 29.5596 94.3684 29.8513 94.3684 30.4346C94.3684 30.7846 94.2434 31.6179 93.9934 32.9346C93.6101 34.8513 93.4184 36.1846 93.4184 36.9346C93.4184 37.1846 93.4768 37.3846 93.5934 37.5346C93.7268 37.6846 93.8934 37.7596 94.0934 37.7596C94.4101 37.7596 94.7934 37.5596 95.2434 37.1596C95.6934 36.7429 96.3018 36.0763 97.0684 35.1596C97.2684 34.9263 97.4934 34.8096 97.7434 34.8096C97.9601 34.8096 98.1268 34.9096 98.2434 35.1096C98.3768 35.3096 98.4434 35.5846 98.4434 35.9346C98.4434 36.6013 98.2851 37.1179 97.9684 37.4846C97.2851 38.3346 96.5601 39.0513 95.7934 39.6346C95.0268 40.2179 94.2851 40.5096 93.5684 40.5096C93.0184 40.5096 92.5101 40.3263 92.0434 39.9596C91.5934 39.5763 91.2518 39.0596 91.0184 38.4096C90.1518 39.8096 89.0601 40.5096 87.7434 40.5096ZM88.6434 37.9846C89.0101 37.9846 89.3601 37.7679 89.6934 37.3346C90.0268 36.9013 90.2684 36.3263 90.4184 35.6096L91.3434 31.0096C90.6434 31.0263 89.9934 31.2929 89.3934 31.8096C88.8101 32.3096 88.3434 32.9763 87.9934 33.8096C87.6434 34.6429 87.4684 35.5263 87.4684 36.4596C87.4684 36.9763 87.5684 37.3596 87.7684 37.6096C87.9851 37.8596 88.2768 37.9846 88.6434 37.9846ZM98.9616 40.5096C98.2116 40.5096 97.5949 40.1679 97.1116 39.4846C96.6449 38.7846 96.4116 37.9179 96.4116 36.8846C96.4116 35.6346 96.4949 34.4929 96.6616 33.4596C96.8283 32.4096 97.1033 31.3013 97.4866 30.1346C97.6533 29.6346 97.8866 29.2763 98.1866 29.0596C98.4866 28.8429 98.9616 28.7346 99.6116 28.7346C99.9783 28.7346 100.228 28.7929 100.362 28.9096C100.512 29.0263 100.587 29.2013 100.587 29.4346C100.587 29.5679 100.495 30.0179 100.312 30.7846C100.145 31.4013 100.012 31.9596 99.9116 32.4596C99.5783 34.2096 99.4116 35.3763 99.4116 35.9596C99.4116 36.3096 99.4533 36.5596 99.5366 36.7096C99.6199 36.8429 99.7533 36.9096 99.9366 36.9096C100.187 36.9096 100.495 36.6596 100.862 36.1596C101.245 35.6596 101.645 34.9013 102.062 33.8846C102.495 32.8679 102.912 31.6179 103.312 30.1346C103.445 29.6346 103.645 29.2763 103.912 29.0596C104.195 28.8429 104.612 28.7346 105.162 28.7346C105.545 28.7346 105.812 28.7846 105.962 28.8846C106.112 28.9679 106.187 29.1346 106.187 29.3846C106.187 29.8013 105.978 30.9429 105.562 32.8096C105.095 34.9429 104.862 36.2596 104.862 36.7596C104.862 37.0763 104.928 37.3263 105.062 37.5096C105.195 37.6763 105.37 37.7596 105.587 37.7596C105.92 37.7596 106.312 37.5596 106.762 37.1596C107.228 36.7429 107.845 36.0763 108.612 35.1596C108.812 34.9263 109.037 34.8096 109.287 34.8096C109.503 34.8096 109.67 34.9096 109.787 35.1096C109.92 35.3096 109.987 35.5846 109.987 35.9346C109.987 36.6013 109.828 37.1179 109.512 37.4846C108.795 38.3679 108.02 39.0929 107.187 39.6596C106.37 40.2263 105.437 40.5096 104.387 40.5096C103.587 40.5096 102.995 40.2013 102.612 39.5846C102.245 38.9679 102.062 38.1013 102.062 36.9846C101.778 38.1179 101.353 38.9929 100.787 39.6096C100.22 40.2096 99.6116 40.5096 98.9616 40.5096ZM119.109 34.8096C119.326 34.8096 119.493 34.9096 119.609 35.1096C119.743 35.3096 119.809 35.5846 119.809 35.9346C119.809 36.6013 119.651 37.1179 119.334 37.4846C118.618 38.3679 117.834 39.0929 116.984 39.6596C116.134 40.2263 115.159 40.5096 114.059 40.5096C110.659 40.5096 108.959 38.1179 108.959 33.3346C108.959 32.6013 108.984 31.8596 109.034 31.1096H108.059C107.559 31.1096 107.218 31.0179 107.034 30.8346C106.868 30.6513 106.784 30.3596 106.784 29.9596C106.784 29.0263 107.159 28.5596 107.909 28.5596H109.334C109.618 26.7263 110.051 25.0513 110.634 23.5346C111.218 22.0179 111.918 20.8096 112.734 19.9096C113.568 19.0096 114.459 18.5596 115.409 18.5596C116.109 18.5596 116.659 18.8679 117.059 19.4846C117.459 20.1013 117.659 20.8763 117.659 21.8096C117.659 24.3929 116.576 26.6429 114.409 28.5596H117.209C117.476 28.5596 117.668 28.6179 117.784 28.7346C117.901 28.8513 117.959 29.0679 117.959 29.3846C117.959 30.5346 117.018 31.1096 115.134 31.1096H112.084C112.051 31.9429 112.034 32.5929 112.034 33.0596C112.034 34.7929 112.234 36.0096 112.634 36.7096C113.051 37.4096 113.701 37.7596 114.584 37.7596C115.301 37.7596 115.934 37.5429 116.484 37.1096C117.034 36.6763 117.684 36.0263 118.434 35.1596C118.634 34.9263 118.859 34.8096 119.109 34.8096ZM114.734 20.9596C114.484 20.9596 114.201 21.2763 113.884 21.9096C113.584 22.5263 113.293 23.3929 113.009 24.5096C112.743 25.6096 112.518 26.8346 112.334 28.1846C113.318 27.3346 114.051 26.3846 114.534 25.3346C115.034 24.2679 115.284 23.3013 115.284 22.4346C115.284 21.4513 115.101 20.9596 114.734 20.9596ZM126.724 35.5596C126.941 35.5596 127.107 35.6596 127.224 35.8596C127.357 36.0596 127.424 36.3346 127.424 36.6846C127.424 37.2846 127.282 37.8013 126.999 38.2346C126.532 38.9513 125.916 39.5096 125.149 39.9096C124.399 40.3096 123.499 40.5096 122.449 40.5096C120.849 40.5096 119.607 40.0346 118.724 39.0846C117.841 38.1179 117.399 36.8179 117.399 35.1846C117.399 34.0346 117.641 32.9679 118.124 31.9846C118.607 30.9846 119.274 30.1929 120.124 29.6096C120.991 29.0263 121.966 28.7346 123.049 28.7346C124.016 28.7346 124.791 29.0263 125.374 29.6096C125.957 30.1763 126.249 30.9513 126.249 31.9346C126.249 33.0846 125.832 34.0763 124.999 34.9096C124.182 35.7263 122.782 36.3763 120.799 36.8596C121.199 37.6263 121.874 38.0096 122.824 38.0096C123.507 38.0096 124.066 37.8513 124.499 37.5346C124.949 37.2179 125.466 36.6846 126.049 35.9346C126.249 35.6846 126.474 35.5596 126.724 35.5596ZM122.624 31.1846C122.007 31.1846 121.482 31.5429 121.049 32.2596C120.632 32.9763 120.424 33.8429 120.424 34.8596V34.9096C121.407 34.6763 122.182 34.3263 122.749 33.8596C123.316 33.3929 123.599 32.8513 123.599 32.2346C123.599 31.9179 123.507 31.6679 123.324 31.4846C123.157 31.2846 122.924 31.1846 122.624 31.1846ZM144.793 40.5096C142.81 40.5096 141.085 40.1513 139.618 39.4346C138.152 38.7013 137.027 37.6679 136.243 36.3346C135.46 35.0013 135.068 33.4513 135.068 31.6846C135.068 29.2346 135.527 27.0596 136.443 25.1596C137.377 23.2596 138.635 21.7929 140.218 20.7596C141.802 19.7096 143.56 19.1846 145.493 19.1846C147.293 19.1846 148.66 19.6513 149.593 20.5846C150.527 21.5013 150.993 22.7179 150.993 24.2346C150.993 25.2513 150.81 26.0679 150.443 26.6846C150.093 27.3013 149.585 27.6096 148.918 27.6096C148.452 27.6096 148.085 27.5013 147.818 27.2846C147.552 27.0679 147.418 26.7513 147.418 26.3346C147.418 26.1846 147.452 25.9096 147.518 25.5096C147.618 25.0096 147.668 24.6096 147.668 24.3096C147.668 22.7929 146.86 22.0346 145.243 22.0346C144.143 22.0346 143.093 22.3929 142.093 23.1096C141.093 23.8263 140.285 24.8846 139.668 26.2846C139.052 27.6679 138.743 29.3179 138.743 31.2346C138.743 33.2346 139.302 34.7846 140.418 35.8846C141.535 36.9679 143.185 37.5096 145.368 37.5096C146.452 37.5096 147.543 37.3763 148.643 37.1096C149.76 36.8263 150.993 36.4013 152.343 35.8346C152.593 35.7346 152.802 35.6846 152.968 35.6846C153.235 35.6846 153.435 35.7846 153.568 35.9846C153.702 36.1846 153.768 36.4429 153.768 36.7596C153.768 37.7763 153.218 38.5263 152.118 39.0096C150.935 39.5263 149.702 39.9096 148.418 40.1596C147.152 40.3929 145.943 40.5096 144.793 40.5096ZM154.357 40.5096C153.607 40.5096 152.99 40.1679 152.507 39.4846C152.04 38.7846 151.807 37.9179 151.807 36.8846C151.807 35.6346 151.89 34.4929 152.057 33.4596C152.224 32.4096 152.499 31.3013 152.882 30.1346C153.049 29.6346 153.282 29.2763 153.582 29.0596C153.882 28.8429 154.357 28.7346 155.007 28.7346C155.374 28.7346 155.624 28.7929 155.757 28.9096C155.907 29.0263 155.982 29.2013 155.982 29.4346C155.982 29.5679 155.89 30.0179 155.707 30.7846C155.54 31.4013 155.407 31.9596 155.307 32.4596C154.974 34.2096 154.807 35.3763 154.807 35.9596C154.807 36.3096 154.849 36.5596 154.932 36.7096C155.015 36.8429 155.149 36.9096 155.332 36.9096C155.582 36.9096 155.89 36.6596 156.257 36.1596C156.64 35.6596 157.04 34.9013 157.457 33.8846C157.89 32.8679 158.307 31.6179 158.707 30.1346C158.84 29.6346 159.04 29.2763 159.307 29.0596C159.59 28.8429 160.007 28.7346 160.557 28.7346C160.94 28.7346 161.207 28.7846 161.357 28.8846C161.507 28.9679 161.582 29.1346 161.582 29.3846C161.582 29.8013 161.374 30.9429 160.957 32.8096C160.49 34.9429 160.257 36.2596 160.257 36.7596C160.257 37.0763 160.324 37.3263 160.457 37.5096C160.59 37.6763 160.765 37.7596 160.982 37.7596C161.315 37.7596 161.707 37.5596 162.157 37.1596C162.624 36.7429 163.24 36.0763 164.007 35.1596C164.207 34.9263 164.432 34.8096 164.682 34.8096C164.899 34.8096 165.065 34.9096 165.182 35.1096C165.315 35.3096 165.382 35.5846 165.382 35.9346C165.382 36.6013 165.224 37.1179 164.907 37.4846C164.19 38.3679 163.415 39.0929 162.582 39.6596C161.765 40.2263 160.832 40.5096 159.782 40.5096C158.982 40.5096 158.39 40.2013 158.007 39.5846C157.64 38.9679 157.457 38.1013 157.457 36.9846C157.174 38.1179 156.749 38.9929 156.182 39.6096C155.615 40.2096 155.007 40.5096 154.357 40.5096ZM166.63 27.0846C165.93 27.0846 165.405 26.9263 165.055 26.6096C164.705 26.2763 164.53 25.8179 164.53 25.2346C164.53 24.6513 164.755 24.1679 165.205 23.7846C165.672 23.3846 166.247 23.1846 166.93 23.1846C167.547 23.1846 168.047 23.3346 168.43 23.6346C168.813 23.9346 169.005 24.3596 169.005 24.9096C169.005 25.5763 168.788 26.1096 168.355 26.5096C167.922 26.8929 167.347 27.0846 166.63 27.0846ZM166.43 40.5096C165.347 40.5096 164.555 40.1263 164.055 39.3596C163.572 38.5929 163.33 37.5763 163.33 36.3096C163.33 35.5596 163.422 34.6013 163.605 33.4346C163.805 32.2513 164.055 31.1513 164.355 30.1346C164.505 29.6013 164.705 29.2346 164.955 29.0346C165.205 28.8346 165.605 28.7346 166.155 28.7346C167.005 28.7346 167.43 29.0179 167.43 29.5846C167.43 30.0013 167.272 30.9679 166.955 32.4846C166.555 34.3179 166.355 35.5596 166.355 36.2096C166.355 36.7096 166.422 37.0929 166.555 37.3596C166.688 37.6263 166.913 37.7596 167.23 37.7596C167.53 37.7596 167.905 37.5513 168.355 37.1346C168.805 36.7179 169.405 36.0596 170.155 35.1596C170.355 34.9263 170.58 34.8096 170.83 34.8096C171.047 34.8096 171.213 34.9096 171.33 35.1096C171.463 35.3096 171.53 35.5846 171.53 35.9346C171.53 36.6013 171.372 37.1179 171.055 37.4846C169.405 39.5013 167.863 40.5096 166.43 40.5096ZM174.157 41.0596C173.291 41.0596 172.624 40.8596 172.157 40.4596C171.707 40.0596 171.482 39.6096 171.482 39.1096C171.482 38.6763 171.641 38.3013 171.957 37.9846C172.274 37.6679 172.741 37.5096 173.357 37.5096C173.574 37.5096 173.824 37.5346 174.107 37.5846C174.407 37.6179 174.632 37.6429 174.782 37.6596C174.766 37.2263 174.666 36.8179 174.482 36.4346C174.316 36.0513 174.099 35.6846 173.832 35.3346C173.566 34.9679 173.316 34.6513 173.082 34.3846C172.566 35.3679 172.049 36.1846 171.532 36.8346C171.032 37.4846 170.482 38.1013 169.882 38.6846C169.582 38.9846 169.266 39.1346 168.932 39.1346C168.666 39.1346 168.449 39.0429 168.282 38.8596C168.116 38.6596 168.032 38.4179 168.032 38.1346C168.032 37.8013 168.149 37.4929 168.382 37.2096L168.707 36.8096C169.624 35.6763 170.316 34.7429 170.782 34.0096C171.066 33.5263 171.399 32.8846 171.782 32.0846C172.166 31.2679 172.541 30.4263 172.907 29.5596C173.224 28.8263 173.882 28.4596 174.882 28.4596C175.349 28.4596 175.674 28.5013 175.857 28.5846C176.041 28.6679 176.132 28.8013 176.132 28.9846C176.132 29.0846 176.099 29.2429 176.032 29.4596C175.966 29.6763 175.874 29.8929 175.757 30.1096C175.457 30.7096 175.307 31.2179 175.307 31.6346C175.307 31.8846 175.391 32.1596 175.557 32.4596C175.741 32.7596 176.016 33.1346 176.382 33.5846C176.916 34.2846 177.316 34.8846 177.582 35.3846C177.866 35.8679 178.007 36.4013 178.007 36.9846C178.007 37.1513 177.991 37.3846 177.957 37.6846C178.774 37.3679 179.732 36.5263 180.832 35.1596C181.032 34.9263 181.257 34.8096 181.507 34.8096C181.724 34.8096 181.891 34.9096 182.007 35.1096C182.141 35.3096 182.207 35.5846 182.207 35.9346C182.207 36.5679 182.049 37.0846 181.732 37.4846C180.899 38.5179 180.099 39.2263 179.332 39.6096C178.582 39.9763 177.649 40.1763 176.532 40.2096C175.866 40.7763 175.074 41.0596 174.157 41.0596ZM183.451 27.0846C182.751 27.0846 182.226 26.9263 181.876 26.6096C181.526 26.2763 181.351 25.8179 181.351 25.2346C181.351 24.6513 181.576 24.1679 182.026 23.7846C182.493 23.3846 183.068 23.1846 183.751 23.1846C184.368 23.1846 184.868 23.3346 185.251 23.6346C185.635 23.9346 185.826 24.3596 185.826 24.9096C185.826 25.5763 185.61 26.1096 185.176 26.5096C184.743 26.8929 184.168 27.0846 183.451 27.0846ZM183.251 40.5096C182.168 40.5096 181.376 40.1263 180.876 39.3596C180.393 38.5929 180.151 37.5763 180.151 36.3096C180.151 35.5596 180.243 34.6013 180.426 33.4346C180.626 32.2513 180.876 31.1513 181.176 30.1346C181.326 29.6013 181.526 29.2346 181.776 29.0346C182.026 28.8346 182.426 28.7346 182.976 28.7346C183.826 28.7346 184.251 29.0179 184.251 29.5846C184.251 30.0013 184.093 30.9679 183.776 32.4846C183.376 34.3179 183.176 35.5596 183.176 36.2096C183.176 36.7096 183.243 37.0929 183.376 37.3596C183.51 37.6263 183.735 37.7596 184.051 37.7596C184.351 37.7596 184.726 37.5513 185.176 37.1346C185.626 36.7179 186.226 36.0596 186.976 35.1596C187.176 34.9263 187.401 34.8096 187.651 34.8096C187.868 34.8096 188.035 34.9096 188.151 35.1096C188.285 35.3096 188.351 35.5846 188.351 35.9346C188.351 36.6013 188.193 37.1179 187.876 37.4846C186.226 39.5013 184.685 40.5096 183.251 40.5096ZM188.104 40.5096C187.47 40.5096 187.02 40.1763 186.754 39.5096C186.504 38.8429 186.379 37.7763 186.379 36.3096C186.379 34.1429 186.687 32.0846 187.304 30.1346C187.454 29.6513 187.695 29.3013 188.029 29.0846C188.379 28.8513 188.862 28.7346 189.479 28.7346C189.812 28.7346 190.045 28.7763 190.179 28.8596C190.312 28.9429 190.379 29.1013 190.379 29.3346C190.379 29.6013 190.254 30.2013 190.004 31.1346C189.837 31.8013 189.704 32.3846 189.604 32.8846C189.504 33.3846 189.42 34.0013 189.354 34.7346C189.904 33.3013 190.52 32.1346 191.204 31.2346C191.887 30.3346 192.554 29.6929 193.204 29.3096C193.87 28.9263 194.479 28.7346 195.029 28.7346C196.112 28.7346 196.654 29.2763 196.654 30.3596C196.654 31.0096 196.47 32.1846 196.104 33.8846C195.787 35.3346 195.629 36.2929 195.629 36.7596C195.629 37.4263 195.87 37.7596 196.354 37.7596C196.687 37.7596 197.079 37.5596 197.529 37.1596C197.995 36.7429 198.612 36.0763 199.379 35.1596C199.579 34.9263 199.804 34.8096 200.054 34.8096C200.27 34.8096 200.437 34.9096 200.554 35.1096C200.687 35.3096 200.754 35.5846 200.754 35.9346C200.754 36.6013 200.595 37.1179 200.279 37.4846C199.562 38.3679 198.787 39.0929 197.954 39.6596C197.137 40.2263 196.204 40.5096 195.154 40.5096C194.304 40.5096 193.662 40.2679 193.229 39.7846C192.795 39.2846 192.579 38.5679 192.579 37.6346C192.579 37.1679 192.695 36.3346 192.929 35.1346C193.145 34.0846 193.254 33.3596 193.254 32.9596C193.254 32.6929 193.162 32.5596 192.979 32.5596C192.762 32.5596 192.454 32.8429 192.054 33.4096C191.67 33.9596 191.27 34.6929 190.854 35.6096C190.454 36.5263 190.129 37.4929 189.879 38.5096C189.695 39.2929 189.479 39.8263 189.229 40.1096C188.995 40.3763 188.62 40.5096 188.104 40.5096ZM207.681 35.5596C207.898 35.5596 208.064 35.6596 208.181 35.8596C208.314 36.0596 208.381 36.3346 208.381 36.6846C208.381 37.2846 208.239 37.8013 207.956 38.2346C207.489 38.9513 206.873 39.5096 206.106 39.9096C205.356 40.3096 204.456 40.5096 203.406 40.5096C201.806 40.5096 200.564 40.0346 199.681 39.0846C198.798 38.1179 198.356 36.8179 198.356 35.1846C198.356 34.0346 198.598 32.9679 199.081 31.9846C199.564 30.9846 200.231 30.1929 201.081 29.6096C201.948 29.0263 202.923 28.7346 204.006 28.7346C204.973 28.7346 205.748 29.0263 206.331 29.6096C206.914 30.1763 207.206 30.9513 207.206 31.9346C207.206 33.0846 206.789 34.0763 205.956 34.9096C205.139 35.7263 203.739 36.3763 201.756 36.8596C202.156 37.6263 202.831 38.0096 203.781 38.0096C204.464 38.0096 205.023 37.8513 205.456 37.5346C205.906 37.2179 206.423 36.6846 207.006 35.9346C207.206 35.6846 207.431 35.5596 207.681 35.5596ZM203.581 31.1846C202.964 31.1846 202.439 31.5429 202.006 32.2596C201.589 32.9763 201.381 33.8429 201.381 34.8596V34.9096C202.364 34.6763 203.139 34.3263 203.706 33.8596C204.273 33.3929 204.556 32.8513 204.556 32.2346C204.556 31.9179 204.464 31.6679 204.281 31.4846C204.114 31.2846 203.881 31.1846 203.581 31.1846Z" fill="#F83F05"/>
<path d="M40.7594 35.2C40.7594 51.7685 63.2702 60 40.7594 60C18.2486 60 0 46.5685 0 30C0 13.4315 18.2486 0 40.7594 0C63.2702 0 40.7594 18.6315 40.7594 35.2Z" fill="url(#paint0_linear_11_23)"/>
<path d="M12.0645 35.2823C12.0645 35.2042 12.0889 35.1212 12.1377 35.0333C12.1865 34.9454 12.25 34.8624 12.3281 34.7842C12.4063 34.7061 12.4893 34.6426 12.5772 34.5938C12.665 34.545 12.7481 34.5206 12.8262 34.5206C12.8457 34.5206 12.875 34.5206 12.9141 34.5206C12.9629 34.5206 12.9971 34.5255 13.0166 34.5352C12.8994 34.6622 12.8311 34.7891 12.8115 34.9161C12.8018 35.043 12.7969 35.1797 12.7969 35.3262C12.7969 35.5508 12.8457 35.7364 12.9434 35.8829C13.0508 36.0196 13.1826 36.1319 13.3389 36.2198C13.4951 36.2979 13.666 36.3516 13.8516 36.3809C14.0469 36.42 14.2324 36.4395 14.4082 36.4395C15.1406 36.4395 15.8145 36.3419 16.4297 36.1465C17.0449 35.9415 17.6065 35.668 18.1143 35.3262C18.6318 34.9747 19.1006 34.5645 19.5205 34.0958C19.9404 33.6172 20.3262 33.1046 20.6777 32.5577C21.0391 32.001 21.3662 31.4249 21.6592 30.8292C21.9619 30.2335 22.2451 29.6329 22.5088 29.0274H22.4648H22.4356C22.4258 29.0274 22.4209 29.0225 22.4209 29.0128C22.1279 29.0128 21.8447 29.0958 21.5713 29.2618C21.2979 29.418 21.0244 29.5987 20.751 29.8038C20.4775 29.9991 20.1992 30.1797 19.916 30.3458C19.6328 30.502 19.3398 30.5801 19.0371 30.5801C19.0371 30.502 19.1494 30.3555 19.374 30.1407C19.6084 29.9258 19.9014 29.6768 20.2529 29.3936C20.6045 29.1104 20.9805 28.8126 21.3809 28.5001C21.791 28.1876 22.167 27.9044 22.5088 27.6505C22.8604 27.3868 23.1533 27.1719 23.3877 27.0059C23.6221 26.8301 23.7393 26.7422 23.7393 26.7422C23.9248 26.7422 24.0566 26.8204 24.1348 26.9766C24.2129 27.1231 24.252 27.2745 24.252 27.4307C24.252 27.46 24.2471 27.5089 24.2373 27.5772C24.2373 27.6456 24.2324 27.6846 24.2227 27.6944C23.793 28.6221 23.4365 29.3936 23.1533 30.0089C22.8701 30.6241 22.6406 31.1172 22.4648 31.4883C22.2891 31.8594 22.1572 32.1378 22.0693 32.3233C21.9912 32.4991 21.9375 32.6163 21.9082 32.6749C21.8887 32.7335 21.8838 32.7579 21.8936 32.7481C21.9131 32.7286 21.9375 32.7139 21.9668 32.7042C22.0645 32.6651 22.2549 32.6163 22.5381 32.5577C22.8311 32.4893 23.1387 32.421 23.4609 32.3526C23.793 32.2842 24.1006 32.2256 24.3838 32.1768C24.6768 32.1182 24.877 32.0792 24.9844 32.0596L25.1602 31.8839C25.5898 30.9854 26.0293 30.0967 26.4785 29.2178C26.9375 28.3292 27.3867 27.4405 27.8262 26.5518C28.0117 26.3956 28.1338 26.3614 28.1924 26.4493C28.251 26.5274 28.2754 26.6592 28.2656 26.8448C28.2656 27.0303 28.2363 27.2305 28.1777 27.4454C28.1191 27.6505 28.0654 27.8018 28.0166 27.8995L24.4131 35.8536C24.3252 36.0489 24.2324 36.1661 24.1348 36.2051C24.0371 36.2442 23.915 36.2637 23.7686 36.2637C23.6807 36.2637 23.583 36.2589 23.4756 36.2491C23.3682 36.2393 23.2998 36.1758 23.2705 36.0587C23.4561 35.8926 23.627 35.6827 23.7832 35.4288C23.9492 35.1651 24.0908 34.8965 24.208 34.6231C24.3252 34.3399 24.4131 34.0616 24.4717 33.7881C24.54 33.5049 24.5742 33.2559 24.5742 33.0411C24.5547 33.0411 24.5254 33.0362 24.4863 33.0264C24.457 33.0167 24.4326 33.0167 24.4131 33.0264C24.1104 33.1241 23.7881 33.2022 23.4463 33.2608C23.1045 33.3096 22.7627 33.3682 22.4209 33.4366C22.0791 33.4952 21.752 33.5782 21.4395 33.6856C21.127 33.793 20.8535 33.9493 20.6191 34.1544C20.0527 34.6329 19.5645 35.0626 19.1543 35.4434C18.7441 35.8145 18.3242 36.1319 17.8945 36.3956C17.4648 36.6592 16.9815 36.8594 16.4443 36.9962C15.9072 37.1329 15.2383 37.2012 14.4375 37.2012C14.1152 37.2012 13.8125 37.1671 13.5293 37.0987C13.2461 37.0401 12.9922 36.9376 12.7676 36.7911C12.5527 36.6446 12.3818 36.4493 12.2549 36.2051C12.1279 35.961 12.0645 35.6534 12.0645 35.2823ZM27.0352 34.6817C27.1035 34.1153 27.2256 33.5782 27.4014 33.0704C27.5772 32.5528 27.792 32.0547 28.0459 31.5762C28.2998 31.088 28.583 30.6094 28.8955 30.1407C29.208 29.6719 29.54 29.1983 29.8916 28.7198C30.0967 28.4561 30.3213 28.1876 30.5654 27.9141C30.8096 27.6407 31.0732 27.3917 31.3565 27.1671C31.6397 26.9424 31.9424 26.7618 32.2647 26.6251C32.5967 26.4786 32.9434 26.4053 33.3047 26.4053C33.5 26.4053 33.6514 26.42 33.7588 26.4493C33.8662 26.4688 33.9443 26.5176 33.9932 26.5958C34.0518 26.6641 34.0859 26.7667 34.0957 26.9034C34.1055 27.0401 34.1055 27.2159 34.0957 27.4307C34.0957 27.6749 34.0518 27.9239 33.9639 28.1778C33.876 28.4317 33.7539 28.671 33.5977 28.8956C33.4414 29.1202 33.2559 29.3204 33.041 29.4962C32.8262 29.6622 32.5967 29.7842 32.3525 29.8624V29.6573C32.3525 29.4522 32.3965 29.2569 32.4844 29.0714C32.582 28.8858 32.6895 28.7003 32.8066 28.5147C32.9238 28.3194 33.0264 28.1192 33.1143 27.9141C33.2119 27.709 33.2607 27.4893 33.2607 27.2549C33.1533 27.2549 33.0606 27.2501 32.9824 27.2403C32.9043 27.2208 32.8311 27.211 32.7627 27.211C32.7041 27.2012 32.6406 27.211 32.5723 27.2403C32.5137 27.2598 32.4404 27.3087 32.3525 27.3868C31.874 27.7774 31.3809 28.2364 30.8731 28.7637C30.375 29.2813 29.9209 29.8428 29.5107 30.4483C29.1006 31.0538 28.7637 31.6885 28.5 32.3526C28.2461 33.0069 28.1191 33.6661 28.1191 34.3301C28.1191 34.3594 28.1191 34.4083 28.1191 34.4766C28.1289 34.545 28.1338 34.6133 28.1338 34.6817C28.1436 34.7501 28.1533 34.8135 28.1631 34.8721C28.1729 34.9307 28.1777 34.9649 28.1777 34.9747C28.2852 35.0821 28.4121 35.1456 28.5586 35.1651C28.7148 35.1846 28.832 35.1944 28.9102 35.1944C29.3301 35.1944 29.7207 35.1212 30.082 34.9747C30.4531 34.8282 30.8145 34.6719 31.166 34.5059C31.5176 34.3301 31.8691 34.169 32.2207 34.0225C32.582 33.876 32.9629 33.8028 33.3633 33.8028C33.3633 33.959 33.2705 34.1348 33.085 34.3301C32.9092 34.5157 32.6748 34.7012 32.3818 34.8868C32.0986 35.0723 31.7813 35.253 31.4297 35.4288C31.0781 35.5948 30.7315 35.7462 30.3897 35.8829C30.0576 36.0196 29.75 36.127 29.4668 36.2051C29.1934 36.2833 28.9834 36.3223 28.8369 36.3223C28.6221 36.3223 28.4072 36.2833 28.1924 36.2051C27.9775 36.1172 27.7822 36.0001 27.6065 35.8536C27.4404 35.7071 27.3037 35.5362 27.1963 35.3409C27.0889 35.1358 27.0352 34.9161 27.0352 34.6817Z" fill="white"/>
<defs>
<linearGradient id="paint0_linear_11_23" x1="40.7594" y1="3.48343e-07" x2="40.6414" y2="51.3832" gradientUnits="userSpaceOnUse">
<stop offset="0.0001" stop-color="#4D77ED"/>
<stop offset="0.0002" stop-color="#F98809"/>
<stop offset="1" stop-color="#F83F05"/>
</linearGradient>
</defs>
</svg>
